<svg id="Layer_1" data-name="Layer 1" xmlns="http://www.w3.org/2000/svg" viewBox="0 0 17.72 17.72"><defs><style>.cls-1{fill:#fff;}</style></defs><circle class="cls-1" cx="8.86" cy="8.86" r="3.74"/><ellipse class="cls-1" cx="8.86" cy="2.49" rx="0.86" ry="2.49"/><ellipse class="cls-1" cx="12.05" cy="3.34" rx="2.49" ry="0.86" transform="translate(3.13 12.1) rotate(-60)"/><ellipse class="cls-1" cx="14.38" cy="5.67" rx="2.49" ry="0.86" transform="translate(-0.91 7.95) rotate(-30)"/><ellipse class="cls-1" cx="15.24" cy="8.86" rx="2.49" ry="0.86"/><ellipse class="cls-1" cx="14.38" cy="12.05" rx="0.86" ry="2.49" transform="translate(-3.24 18.48) rotate(-60)"/><ellipse class="cls-1" cx="12.05" cy="14.38" rx="0.86" ry="2.49" transform="matrix(0.87, -0.5, 0.5, 0.87, -5.58, 7.95)"/><ellipse class="cls-1" cx="8.86" cy="15.24" rx="0.86" ry="2.49"/><ellipse class="cls-1" cx="5.67" cy="14.38" rx="2.49" ry="0.86" transform="translate(-9.62 12.1) rotate(-60)"/><ellipse class="cls-1" cx="3.34" cy="12.05" rx="2.49" ry="0.86" transform="translate(-5.58 3.28) rotate(-30)"/><ellipse class="cls-1" cx="2.49" cy="8.86" rx="2.49" ry="0.86"/><ellipse class="cls-1" cx="3.34" cy="5.67" rx="0.86" ry="2.49" transform="translate(-3.24 5.73) rotate(-60)"/><ellipse class="cls-1" cx="5.67" cy="3.34" rx="0.86" ry="2.49" transform="translate(-0.91 3.28) rotate(-30)"/></svg>